M48
; DRILL file {KiCad 8.0.4} date 2025-01-27T21:26:07+0000
; FORMAT={-:-/ absolute / inch / decimal}
; #@! TF.CreationDate,2025-01-27T21:26:07+00:00
; #@! TF.GenerationSoftware,Kicad,Pcbnew,8.0.4
; #@! TF.FileFunction,Plated,1,2,PTH
FMAT,2
INCH
; #@! TA.AperFunction,Plated,PTH,ViaDrill
T1C0.0118
; #@! TA.AperFunction,Plated,PTH,ComponentDrill
T2C0.0197
; #@! TA.AperFunction,Plated,PTH,ComponentDrill
T3C0.0374
; #@! TA.AperFunction,Plated,PTH,ComponentDrill
T4C0.0437
; #@! TA.AperFunction,Plated,PTH,ComponentDrill
T5C0.1260
%
G90
G05
T1
X2.8494Y-3.3829
X3.4262Y-3.6033
X3.5413Y-3.4882
X3.689Y-3.0896
X4.2589Y-3.6437
X4.4026Y-3.4646
X4.6732Y-3.2264
X5.1171Y-3.6319
X5.2333Y-3.5079
X5.8898Y-3.6555
X5.935Y-3.75
X6.0315Y-3.9272
X6.2598Y-3.1634
X6.2913Y-3.2382
X6.3819Y-3.2421
X6.4606Y-3.2618
X6.6673Y-3.2648
X6.813Y-3.5797
X6.9085Y-3.5197
X6.9892Y-3.0285
X7.0827Y-3.2067
X7.6191Y-3.6319
X7.7559Y-3.5118
X8.3701Y-3.2608
X8.4429Y-3.6112
X8.5837Y-3.4911
X9.0591Y-3.3041
T2
X2.9941Y-3.1909
X3.0218Y-3.1241
X3.0218Y-3.2578
X3.0886Y-3.0965
X3.0886Y-3.2854
X3.1554Y-3.1241
X3.1554Y-3.2578
X3.1831Y-3.1909
X8.5827Y-3.1909
X8.6104Y-3.1241
X8.6104Y-3.2578
X8.6772Y-3.0965
X8.6772Y-3.2854
X8.744Y-3.1241
X8.744Y-3.2578
X8.7717Y-3.1909
T3
X5.7362Y-3.1949
X5.8346Y-3.1949
X5.9331Y-3.1949
X6.0315Y-3.1949
T4
X2.8769Y-3.6476
X2.8769Y-3.8091
X2.9769Y-3.6476
X2.9769Y-3.8091
X3.7206Y-3.6476
X3.7206Y-3.8091
X3.8206Y-3.6476
X3.8206Y-3.8091
X4.5642Y-3.6476
X4.5642Y-3.8091
X4.6642Y-3.6476
X4.6642Y-3.8091
X5.4079Y-3.6476
X5.4079Y-3.8091
X5.5079Y-3.6476
X5.5079Y-3.8091
X6.2515Y-3.6476
X6.2515Y-3.8091
X6.3515Y-3.6476
X6.3515Y-3.8091
X7.0952Y-3.6476
X7.0952Y-3.8091
X7.1952Y-3.6476
X7.1952Y-3.8091
X7.9388Y-3.6476
X7.9388Y-3.8091
X8.0388Y-3.6476
X8.0388Y-3.8091
X8.7825Y-3.6476
X8.7825Y-3.8091
X8.8825Y-3.6476
X8.8825Y-3.8091
T5
X3.0886Y-3.1909
X8.6772Y-3.1909
M30
