%TF.GenerationSoftware,KiCad,Pcbnew,8.0.4*%
%TF.CreationDate,2025-01-27T21:26:07+00:00*%
%TF.ProjectId,Line Follower,4c696e65-2046-46f6-9c6c-6f7765722e6b,rev?*%
%TF.SameCoordinates,Original*%
%TF.FileFunction,Paste,Top*%
%TF.FilePolarity,Positive*%
%FSLAX46Y46*%
G04 Gerber Fmt 4.6, Leading zero omitted, Abs format (unit mm)*
G04 Created by KiCad (PCBNEW 8.0.4) date 2025-01-27 21:26:07*
%MOMM*%
%LPD*%
G01*
G04 APERTURE LIST*
G04 Aperture macros list*
%AMRoundRect*
0 Rectangle with rounded corners*
0 $1 Rounding radius*
0 $2 $3 $4 $5 $6 $7 $8 $9 X,Y pos of 4 corners*
0 Add a 4 corners polygon primitive as box body*
4,1,4,$2,$3,$4,$5,$6,$7,$8,$9,$2,$3,0*
0 Add four circle primitives for the rounded corners*
1,1,$1+$1,$2,$3*
1,1,$1+$1,$4,$5*
1,1,$1+$1,$6,$7*
1,1,$1+$1,$8,$9*
0 Add four rect primitives between the rounded corners*
20,1,$1+$1,$2,$3,$4,$5,0*
20,1,$1+$1,$4,$5,$6,$7,0*
20,1,$1+$1,$6,$7,$8,$9,0*
20,1,$1+$1,$8,$9,$2,$3,0*%
G04 Aperture macros list end*
%ADD10RoundRect,0.200000X0.200000X0.275000X-0.200000X0.275000X-0.200000X-0.275000X0.200000X-0.275000X0*%
%ADD11RoundRect,0.218750X-0.218750X-0.256250X0.218750X-0.256250X0.218750X0.256250X-0.218750X0.256250X0*%
%ADD12RoundRect,0.225000X0.250000X-0.225000X0.250000X0.225000X-0.250000X0.225000X-0.250000X-0.225000X0*%
%ADD13R,0.300000X0.800000*%
%ADD14R,0.800000X0.300000*%
%ADD15R,1.760000X1.760000*%
%ADD16RoundRect,0.200000X-0.200000X-0.275000X0.200000X-0.275000X0.200000X0.275000X-0.200000X0.275000X0*%
%ADD17RoundRect,0.225000X-0.225000X-0.250000X0.225000X-0.250000X0.225000X0.250000X-0.225000X0.250000X0*%
G04 APERTURE END LIST*
D10*
%TO.C,R17*%
X132262500Y-79600000D03*
X130612500Y-79600000D03*
%TD*%
D11*
%TO.C,D1*%
X130650000Y-77850000D03*
X132225000Y-77850000D03*
%TD*%
D10*
%TO.C,R13*%
X209619997Y-92700000D03*
X207969997Y-92700000D03*
%TD*%
D12*
%TO.C,C1*%
X160900000Y-81325000D03*
X160900000Y-79775000D03*
%TD*%
D10*
%TO.C,R7*%
X145334284Y-92700000D03*
X143684284Y-92700000D03*
%TD*%
%TO.C,R12*%
X188177142Y-96800000D03*
X186527142Y-96800000D03*
%TD*%
D13*
%TO.C,U1*%
X159550000Y-86300000D03*
X160050000Y-86300000D03*
X160550000Y-86300000D03*
X161050000Y-86300000D03*
D14*
X161800000Y-85550000D03*
X161800000Y-85050000D03*
X161800000Y-84550000D03*
X161800000Y-84050000D03*
D13*
X161050000Y-83300000D03*
X160550000Y-83300000D03*
X160050000Y-83300000D03*
X159550000Y-83300000D03*
D14*
X158800000Y-84050000D03*
X158800000Y-84550000D03*
X158800000Y-85050000D03*
X158800000Y-85550000D03*
D15*
X160300000Y-84800000D03*
%TD*%
D12*
%TO.C,C3*%
X164000000Y-81325000D03*
X164000000Y-79775000D03*
%TD*%
D16*
%TO.C,R18*%
X174775000Y-83450000D03*
X173125000Y-83450000D03*
%TD*%
D10*
%TO.C,R5*%
X123905713Y-92700000D03*
X122255713Y-92700000D03*
%TD*%
%TO.C,R1*%
X81048571Y-92700000D03*
X79398571Y-92700000D03*
%TD*%
D16*
%TO.C,R19*%
X185425000Y-83450000D03*
X183775000Y-83450000D03*
%TD*%
D10*
%TO.C,R10*%
X166748571Y-96800000D03*
X165098571Y-96800000D03*
%TD*%
%TO.C,R9*%
X166762855Y-92700000D03*
X165112855Y-92700000D03*
%TD*%
%TO.C,R11*%
X188191426Y-92700000D03*
X186541426Y-92700000D03*
%TD*%
%TO.C,R15*%
X231048571Y-92700000D03*
X229398571Y-92700000D03*
%TD*%
%TO.C,R3*%
X102477142Y-92700000D03*
X100827142Y-92700000D03*
%TD*%
%TO.C,R2*%
X81034287Y-96800000D03*
X79384287Y-96800000D03*
%TD*%
D17*
%TO.C,C2*%
X163425000Y-83850000D03*
X164975000Y-83850000D03*
%TD*%
D10*
%TO.C,R14*%
X209605713Y-96800000D03*
X207955713Y-96800000D03*
%TD*%
%TO.C,R16*%
X231034287Y-96800000D03*
X229384287Y-96800000D03*
%TD*%
%TO.C,R6*%
X123891429Y-96800000D03*
X122241429Y-96800000D03*
%TD*%
%TO.C,R8*%
X145320000Y-96800000D03*
X143670000Y-96800000D03*
%TD*%
%TO.C,R4*%
X102462858Y-96800000D03*
X100812858Y-96800000D03*
%TD*%
M02*
