%TF.GenerationSoftware,KiCad,Pcbnew,8.0.4*%
%TF.CreationDate,2025-01-27T21:26:07+00:00*%
%TF.ProjectId,Line Follower,4c696e65-2046-46f6-9c6c-6f7765722e6b,rev?*%
%TF.SameCoordinates,Original*%
%TF.FileFunction,Soldermask,Bot*%
%TF.FilePolarity,Negative*%
%FSLAX46Y46*%
G04 Gerber Fmt 4.6, Leading zero omitted, Abs format (unit mm)*
G04 Created by KiCad (PCBNEW 8.0.4) date 2025-01-27 21:26:07*
%MOMM*%
%LPD*%
G01*
G04 APERTURE LIST*
G04 Aperture macros list*
%AMRoundRect*
0 Rectangle with rounded corners*
0 $1 Rounding radius*
0 $2 $3 $4 $5 $6 $7 $8 $9 X,Y pos of 4 corners*
0 Add a 4 corners polygon primitive as box body*
4,1,4,$2,$3,$4,$5,$6,$7,$8,$9,$2,$3,0*
0 Add four circle primitives for the rounded corners*
1,1,$1+$1,$2,$3*
1,1,$1+$1,$4,$5*
1,1,$1+$1,$6,$7*
1,1,$1+$1,$8,$9*
0 Add four rect primitives between the rounded corners*
20,1,$1+$1,$2,$3,$4,$5,0*
20,1,$1+$1,$4,$5,$6,$7,0*
20,1,$1+$1,$6,$7,$8,$9,0*
20,1,$1+$1,$8,$9,$2,$3,0*%
G04 Aperture macros list end*
%ADD10C,1.665000*%
%ADD11RoundRect,0.250000X0.600000X0.725000X-0.600000X0.725000X-0.600000X-0.725000X0.600000X-0.725000X0*%
%ADD12O,1.700000X1.950000*%
%ADD13C,0.800000*%
%ADD14C,6.400000*%
G04 APERTURE END LIST*
D10*
%TO.C,LED1*%
X73074287Y-96750000D03*
X75614287Y-96750000D03*
X75614287Y-92650000D03*
X73074287Y-92650000D03*
%TD*%
D11*
%TO.C,J1*%
X153200000Y-81150000D03*
D12*
X150700000Y-81150000D03*
X148200000Y-81150000D03*
X145700000Y-81150000D03*
%TD*%
D10*
%TO.C,LED4*%
X137360000Y-96750000D03*
X139900000Y-96750000D03*
X139900000Y-92650000D03*
X137360000Y-92650000D03*
%TD*%
%TO.C,LED6*%
X180217142Y-96750000D03*
X182757142Y-96750000D03*
X182757142Y-92650000D03*
X180217142Y-92650000D03*
%TD*%
%TO.C,LED8*%
X223074287Y-96750000D03*
X225614287Y-96750000D03*
X225614287Y-92650000D03*
X223074287Y-92650000D03*
%TD*%
D13*
%TO.C,H2*%
X218000000Y-81050000D03*
X218702944Y-79352944D03*
X218702944Y-82747056D03*
X220400000Y-78650000D03*
D14*
X220400000Y-81050000D03*
D13*
X220400000Y-83450000D03*
X222097056Y-79352944D03*
X222097056Y-82747056D03*
X222800000Y-81050000D03*
%TD*%
D10*
%TO.C,LED2*%
X94502858Y-96750000D03*
X97042858Y-96750000D03*
X97042858Y-92650000D03*
X94502858Y-92650000D03*
%TD*%
%TO.C,LED7*%
X201645713Y-96750000D03*
X204185713Y-96750000D03*
X204185713Y-92650000D03*
X201645713Y-92650000D03*
%TD*%
D13*
%TO.C,H1*%
X76050000Y-81050000D03*
X76752944Y-79352944D03*
X76752944Y-82747056D03*
X78450000Y-78650000D03*
D14*
X78450000Y-81050000D03*
D13*
X78450000Y-83450000D03*
X80147056Y-79352944D03*
X80147056Y-82747056D03*
X80850000Y-81050000D03*
%TD*%
D10*
%TO.C,LED3*%
X115931429Y-96750000D03*
X118471429Y-96750000D03*
X118471429Y-92650000D03*
X115931429Y-92650000D03*
%TD*%
%TO.C,LED5*%
X158788571Y-96750000D03*
X161328571Y-96750000D03*
X161328571Y-92650000D03*
X158788571Y-92650000D03*
%TD*%
M02*
